<svg id="f9234658-a33a-4875-ba42-a540eee065d6" data-name="Layer 3 Image" xmlns="http://www.w3.org/2000/svg" viewBox="0 0 401.89 169.1">
  <title>LOGO_1</title>
  <path d="M201.39,171.53H45.44c-13.2,0-15-1.47-18.48-13.95q-12.56-45-25.26-90C1.12,65.53.35,63.47,1,61.24c1.59-5.47,6.83-6.85,11.34-2.59,6.29,5.95,12.34,12.16,18.33,18.41C41,87.88,51.27,98.81,61.57,109.7c2.53,2.68,5.46,4.64,9.29,3.38,4-1.32,3.8-5.06,4.09-8.34Q77.53,75.13,80,45.51c.33-3.9,1.52-7.35,5.46-8.76,3.73-1.33,5.94,1.64,8,3.94,11.16,12.81,22.19,25.73,33.26,38.6,5.32,6.19,10.49,12.51,16,18.49,4.84,5.21,8.38,4.68,11.42-1.81C162.22,78.78,170,61.45,177.9,44.19c5.36-11.65,10.73-23.3,16.24-34.87,1.56-3.27,3.24-7,7.71-6.89s6.47,3.42,8.13,7.09C222.37,37,234.9,64.42,247.23,91.93c5.26,11.74,9,12.41,16.85,2.43C278.67,75.94,294.93,59,310.09,41c2.05-2.43,4.36-4.89,8.06-3.81,4.34,1.27,5,5.14,5.37,8.78,1.56,15.24,2.92,30.5,4.36,45.75.47,5,.87,9.95,1.47,14.91.36,2.93,1.42,5.56,4.72,6.39,3.14.78,5.34-.7,7.44-2.92q23.5-24.87,47.15-49.6a17.29,17.29,0,0,1,3.88-3.1c5.5-3.16,10.24-.46,10.1,5.85a29.94,29.94,0,0,1-1.35,7.34q-12.29,43.52-24.69,87c-3.43,12-5.9,13.89-18.27,13.89Z" transform="translate(-0.75 -2.43)"/>
</svg>
